<svg width="20" height="20" viewBox="0 0 20 20" fill="none" xmlns="http://www.w3.org/2000/svg">
<path d="M12.8077 13.7009V6.29907L12.1923 6.8972C12.0513 7.03427 11.8878 7.1028 11.7019 7.1028C11.516 7.1028 11.3526 7.03427 11.2115 6.8972C11.0705 6.76012 11 6.60125 11 6.42056C11 6.23988 11.0705 6.081 11.2115 5.94393L13.0192 4.18692C13.0833 4.12461 13.1571 4.07788 13.2404 4.04673C13.3237 4.01558 13.4103 4 13.5 4C13.5897 4 13.6763 4.01558 13.7596 4.04673C13.8429 4.07788 13.9167 4.12461 13.9808 4.18692L15.7885 5.94393C15.9295 6.081 16 6.23676 16 6.41121C16 6.58567 15.9295 6.74143 15.7885 6.8785C15.6474 7.01558 15.484 7.08411 15.2981 7.08411C15.1122 7.08411 14.9487 7.01558 14.8077 6.8785L14.1923 6.29907V13.7009L14.8077 13.1028C14.9487 12.9657 15.1122 12.8972 15.2981 12.8972C15.484 12.8972 15.6474 12.9657 15.7885 13.1028C15.9295 13.2399 16 13.3988 16 13.5794C16 13.7601 15.9295 13.919 15.7885 14.0561L13.9808 15.8131C13.9167 15.8754 13.8429 15.9221 13.7596 15.9533C13.6763 15.9844 13.5897 16 13.5 16C13.4103 16 13.3237 15.9844 13.2404 15.9533C13.1571 15.9221 13.0833 15.8754 13.0192 15.8131L11.2115 14.0561C11.0705 13.919 11.0032 13.7601 11.0096 13.5794C11.016 13.3988 11.0897 13.2399 11.2308 13.1028C11.3718 12.9657 11.5353 12.8972 11.7212 12.8972C11.9071 12.8972 12.0705 12.9657 12.2115 13.1028L12.8077 13.7009Z" fill="#0078BB"/>
<path fill-rule="evenodd" clip-rule="evenodd" d="M4 5.82609C4 4.81757 4.72323 4 5.61538 4H9.30769C9.69004 4 10 4.35039 10 4.78261C10 5.21483 9.69004 5.56522 9.30769 5.56522H5.61538C5.48793 5.56522 5.38462 5.68201 5.38462 5.82609V14.1739C5.38462 14.318 5.48793 14.4348 5.61538 14.4348H9.30769C9.69004 14.4348 10 14.7852 10 15.2174C10 15.6496 9.69004 16 9.30769 16H5.61538C4.72323 16 4 15.1824 4 14.1739V5.82609Z" fill="#0078BB"/>
</svg>
