<svg width="20" height="20" viewBox="0 0 20 20" fill="none" xmlns="http://www.w3.org/2000/svg">
<path d="M10 1C6.61235 1 3.86364 3.59192 3.86364 6.78571C3.86364 11.9286 10 19 10 19C10 19 16.1364 11.9286 16.1364 6.78571C16.1364 3.59192 13.3877 1 10 1ZM10 10C9.51454 10 9.03998 9.84919 8.63633 9.56664C8.23268 9.28408 7.91808 8.88248 7.7323 8.41261C7.54652 7.94275 7.49791 7.42572 7.59262 6.92691C7.68733 6.4281 7.9211 5.96992 8.26438 5.6103C8.60765 5.25068 9.04501 5.00577 9.52115 4.90655C9.99728 4.80733 10.4908 4.85826 10.9393 5.05288C11.3878 5.24751 11.7712 5.57709 12.0409 5.99996C12.3106 6.42283 12.4545 6.91999 12.4545 7.42857C12.4538 8.11033 12.195 8.76395 11.7348 9.24602C11.2747 9.7281 10.6508 9.99926 10 10Z" fill="#0078BB"/>
</svg>
