<svg width="20" height="20" viewBox="0 0 20 20" fill="none" xmlns="http://www.w3.org/2000/svg">
<path d="M16.6712 14.4152C17.7656 12.7616 18.2069 10.7605 17.9095 8.80004C17.612 6.83954 16.5971 5.05936 15.0615 3.80477C13.5259 2.55018 11.5791 1.9106 9.59866 2.01008C7.61822 2.10956 5.7453 2.941 4.34315 4.34315C2.941 5.7453 2.10956 7.61822 2.01008 9.59866C1.9106 11.5791 2.55018 13.5259 3.80477 15.0615C5.05936 16.5971 6.83954 17.612 8.80004 17.9095C10.7605 18.2069 12.7616 17.7656 14.4152 16.6712" fill="#0078BB"/>
<path d="M15 16.8333C16.0125 16.8333 16.8333 16.0125 16.8333 15C16.8333 13.9875 16.0125 13.1667 15 13.1667C13.9875 13.1667 13.1667 13.9875 13.1667 15C13.1667 16.0125 13.9875 16.8333 15 16.8333Z" fill="#0078BB" stroke="white" stroke-width="1.66667" stroke-linecap="round" stroke-linejoin="round"/>
<path d="M11 11L14 14" stroke="white" stroke-width="1.66667" stroke-linejoin="round"/>
<path d="M10 11.5C10.8284 11.5 11.5 10.8284 11.5 10C11.5 9.17157 10.8284 8.5 10 8.5C9.17157 8.5 8.5 9.17157 8.5 10C8.5 10.8284 9.17157 11.5 10 11.5Z" fill="#0078BB" stroke="white" stroke-linecap="round" stroke-linejoin="round"/>
</svg>
