<svg width="20" height="20" viewBox="0 0 20 20" fill="none" xmlns="http://www.w3.org/2000/svg">
<path d="M8.9375 12.5417C9.27083 12.875 9.66319 13.0347 10.1146 13.0208C10.566 13.0069 10.9167 12.8125 11.1667 12.4375L14.3542 7.64583C14.4653 7.47917 14.4479 7.32292 14.3021 7.17708C14.1562 7.03125 14 7.01389 13.8333 7.125L9.0625 10.3333C8.6875 10.5833 8.48958 10.934 8.46875 11.3854C8.44792 11.8368 8.60417 12.2222 8.9375 12.5417ZM4 16C3.73611 16 3.49306 15.9375 3.27083 15.8125C3.04861 15.6875 2.875 15.5069 2.75 15.2708C2.47222 14.7708 2.27778 14.2396 2.16667 13.6771C2.05556 13.1146 2 12.5417 2 11.9583C2 10.8472 2.21181 9.80903 2.63542 8.84375C3.05903 7.87847 3.63194 7.03819 4.35417 6.32292C5.07639 5.60764 5.92708 5.04167 6.90625 4.625C7.88542 4.20833 8.92361 4 10.0208 4C11.1181 4 12.1528 4.20833 13.125 4.625C14.0972 5.04167 14.9444 5.61111 15.6667 6.33333C16.3889 7.05556 16.9583 7.89931 17.375 8.86458C17.7917 9.82986 18 10.8611 18 11.9583C18 12.5417 17.9444 13.1146 17.8333 13.6771C17.7222 14.2396 17.5278 14.7708 17.25 15.2708C17.125 15.5069 16.9514 15.6875 16.7292 15.8125C16.5069 15.9375 16.2639 16 16 16H4Z" fill="#0078BB"/>
</svg>
