<?xml version="1.0" encoding="utf-8"?>
<!-- Generator: Adobe Illustrator 28.3.0, SVG Export Plug-In . SVG Version: 6.00 Build 0)  -->
<svg version="1.1" id="圖層_1" xmlns="http://www.w3.org/2000/svg" xmlns:xlink="http://www.w3.org/1999/xlink" x="0px" y="0px"
	 viewBox="0 0 100 100" style="enable-background:new 0 0 100 100;" xml:space="preserve">
<style type="text/css">
	.st0{fill:#FFFFFF;}
	.st1{fill:#6BCCFC;}
	.st2{fill:#2399E2;}
</style>
<circle class="st0" cx="50" cy="50" r="50"/>
<g>
	<path class="st1" d="M78.1,64.5c-14-8.7,17.7-5.7,13.5,7.6C84.5,94.5,19.1,92.2,12,81.5c-16.7-25.2,7-96,10.5-47.5
		C24.4,58.7,98.4,77.1,78.1,64.5z"/>
	<path class="st2" d="M89.9,75.2C90.8,81,71.7,88.9,59.1,97C39.4,109.8,14.9,78.1,6.6,68.4C-7.5,51.8,8.9,3,20.5,41.3
		C27.5,64.6,86,49.9,89.9,75.2z"/>
	<g>
		<g>
			<path d="M50,100C22.4,100,0,77.6,0,50S22.4,0,50,0s50,22.4,50,50S77.6,100,50,100z M50,5.8C25.6,5.8,5.8,25.6,5.8,50
				S25.6,94.2,50,94.2S94.2,74.4,94.2,50S74.4,5.8,50,5.8z"/>
		</g>
	</g>
	<path d="M67.3,48.5c-6.6,0-12-5.4-12-12c0-5.1,3.1-9.4,7.6-11.2c-3.6-1.8-7.7-2.8-12.1-2.8c-15.1,0-27.3,12.2-27.3,27.3
		s12.2,27.3,27.3,27.3S78.1,65,78.1,49.9c0-2.3-0.3-4.6-0.8-6.7C75.1,46.4,71.5,48.5,67.3,48.5z"/>
</g>
</svg>
